<svg width="24" height="24" viewBox="0 0 24 24" fill="none" xmlns="http://www.w3.org/2000/svg">
<path fill-rule="evenodd" clip-rule="evenodd" d="M21.5407 13.1665C21.5799 12.815 21.5998 12.458 21.5998 12.0964C21.5998 6.79443 17.3014 2.49637 11.9998 2.49637C6.69869 2.49637 2.39984 6.79443 2.39984 12.0964C2.39984 12.458 2.41983 12.815 2.45898 13.1665C2.46329 13.206 2.4676 13.2452 2.4727 13.2844C2.497 13.4835 2.52798 13.6809 2.5648 13.8761C2.57144 13.9145 2.5789 13.9529 2.58674 13.9909V13.9913C3.26579 17.3842 5.73359 20.1302 8.96467 21.2057C9.44467 21.2947 9.62062 20.9973 9.62062 20.7438C9.62062 20.6365 9.61872 20.4135 9.61627 20.1241L9.61626 20.1239L9.61626 20.1234C9.61348 19.7954 9.60997 19.3825 9.60768 18.9566C6.93693 19.5373 6.37345 17.8238 6.37345 17.8238C5.93658 16.7145 5.30767 16.419 5.30767 16.419C4.4362 15.8234 5.3731 15.8356 5.3731 15.8356C6.337 15.9034 6.84483 16.825 6.84483 16.825C7.70099 18.2924 9.09044 17.8684 9.63824 17.6232C9.72446 17.0025 9.97327 16.5789 10.248 16.3391C8.59008 16.1506 6.86639 15.6111 6.18108 13.6515C6.16777 13.6131 6.15442 13.5739 6.14189 13.5343C6.10349 13.4148 6.06899 13.2898 6.03843 13.1598C6.02939 13.121 6.02077 13.0818 6.01255 13.0418C5.92244 12.6167 5.87384 12.1367 5.87384 11.5948C5.87384 10.547 6.24922 9.69044 6.86324 9.01807C6.76372 8.77631 6.43496 7.79984 6.95609 6.47741C6.95609 6.47741 7.76249 6.21959 9.59669 7.46171C10.3627 7.24897 11.184 7.14236 11.9998 7.13846C12.8156 7.14236 13.6373 7.24893 14.4045 7.46171C16.2372 6.21959 17.042 6.47741 17.042 6.47741C17.5647 7.79984 17.2359 8.77631 17.136 9.01807C17.7516 9.69044 18.1242 10.547 18.1242 11.5948C18.1242 12.1371 18.0756 12.6171 17.9859 13.0422C17.9777 13.0822 17.9686 13.1214 17.9596 13.1602C17.9291 13.2903 17.895 13.4149 17.8566 13.5344C17.8441 13.5739 17.8311 13.6131 17.8174 13.6515C17.1317 15.6146 15.4033 16.1467 13.7407 16.3317C14.0848 16.6295 14.3916 17.2137 14.3916 18.1095C14.3916 18.968 14.3867 19.7144 14.3834 20.2095C14.3818 20.4552 14.3806 20.6389 14.3806 20.7438C14.3806 20.9997 14.5534 21.2986 15.0401 21.2046C18.2692 20.1282 20.7342 17.3826 21.4129 13.9913C21.4207 13.9533 21.4282 13.9149 21.4353 13.8761C21.4717 13.6809 21.5027 13.4835 21.5274 13.2844C21.5316 13.2488 21.5356 13.2129 21.5395 13.1772L21.5395 13.1767L21.5407 13.1665ZM5.78447 16.1647C5.80521 16.1158 5.88047 16.102 5.94981 16.135C6.01956 16.1663 6.05954 16.2321 6.03527 16.2799C6.01409 16.3278 5.93927 16.3419 5.87069 16.3089C5.80094 16.2776 5.76212 16.2126 5.78447 16.1647ZM6.397 16.514C6.33393 16.4474 6.2473 16.4274 6.20032 16.4697C6.1537 16.5128 6.16544 16.6025 6.22814 16.6691C6.28889 16.7361 6.37859 16.7561 6.42446 16.7138C6.47227 16.6707 6.4597 16.5817 6.397 16.514ZM6.59015 16.9548C6.64932 16.914 6.74416 16.9509 6.8045 17.0355C6.86326 17.1221 6.86326 17.2248 6.8033 17.2663C6.74412 17.3074 6.64812 17.269 6.58857 17.1836C6.52981 17.0982 6.52981 16.9959 6.59015 16.9548ZM7.2693 17.5554C7.18661 17.4767 7.07378 17.4606 7.02049 17.5186C6.96799 17.5766 6.99109 17.6867 7.07494 17.7639C7.15721 17.8431 7.2693 17.8587 7.3218 17.8007C7.37786 17.7431 7.3524 17.6326 7.2693 17.5554ZM7.63949 17.9912C7.66184 17.9156 7.77036 17.8799 7.88009 17.914C7.98865 17.9469 8.05956 18.0343 8.03717 18.1107C8.01366 18.1859 7.90592 18.22 7.79699 18.1883C7.68846 18.1553 7.61755 18.0672 7.63949 17.9912ZM8.61471 18.0283C8.49988 18.0303 8.40977 18.0949 8.40977 18.1749C8.41093 18.2528 8.50382 18.3171 8.61861 18.3144C8.73264 18.3132 8.82512 18.2474 8.82235 18.1682C8.82238 18.0899 8.72871 18.026 8.61471 18.0283ZM9.3242 17.9387C9.43745 17.9191 9.5393 17.9654 9.55382 18.0441C9.56717 18.1213 9.488 18.2005 9.37475 18.2216C9.26308 18.242 9.16003 18.1942 9.14593 18.1178C9.13183 18.0386 9.21253 17.9591 9.3242 17.9387Z" fill="#374053"/>
</svg>
