<svg xmlns="http://www.w3.org/2000/svg" width="25" height="24" fill="none" viewBox="0 0 25 24">
    <path fill="#374053" d="M22.984 5.74c0-.026.017-.05.016-.075l-6.714 6.469 6.706 6.262c.004-.044-.008-.09-.008-.135V5.739zM15.261 13.13l-2.74 2.636c-.139.134-.318.2-.497.2-.176 0-.351-.063-.489-.192l-2.733-2.547-6.75 6.506c.164.059.34.105.525.105H21.47c.274 0 .531-.084.755-.208l-6.964-6.5z"/>
    <path fill="#374053" d="M12.016 14.263l10.246-9.87c-.232-.138-.502-.23-.792-.23H2.577c-.377 0-.722.146-.991.369l10.43 9.73zM1 5.98v12.28c0 .141.032.277.068.407l6.665-6.419L1 5.98z"/>
</svg>
