<svg xmlns="http://www.w3.org/2000/svg" width="16" height="16" fill="none" viewBox="0 0 16 16">
    <path fill="#374053" fill-rule="evenodd" d="M9.963 2.03c1.106-1.107 2.9-1.107 4.007 0 1.106 1.106 1.106 2.9 0 4.006l-3.526 3.526c-1.106 1.107-2.9 1.107-4.006 0-.222-.221-.222-.58 0-.801.221-.222.58-.222.801 0 .664.664 1.74.664 2.404 0l3.526-3.526c.663-.664.663-1.74 0-2.404-.664-.664-1.74-.664-2.405 0L8.842 4.754c-.222.221-.58.221-.802 0-.221-.221-.221-.58 0-.801L9.963 2.03zM5.235 13.168l1.603-1.602c.221-.222.58-.222.801 0 .222.221.222.58 0 .801L6.037 13.97c-1.107 1.107-2.9 1.107-4.007 0-1.107-1.107-1.107-2.9 0-4.007l3.205-3.205c1.107-1.107 2.9-1.107 4.007 0 .221.22.221.58 0 .801-.221.221-.58.221-.801 0-.664-.664-1.74-.664-2.404 0L2.83 10.765c-.664.663-.664 1.74 0 2.403.664.665 1.74.665 2.404 0z" clip-rule="evenodd"/>
</svg>
