<svg xmlns="http://www.w3.org/2000/svg" xmlns:xlink="http://www.w3.org/1999/xlink" width="375" height="48" fill="none" xmlns:v="https://vecta.io/nano"><mask id="A" maskUnits="userSpaceOnUse" x=".85" y=".95" width="374" height="47" fill="#000"><path fill="#fff" d="M.85.95h374v47H.85z"/><use xlink:href="#C"/><use xlink:href="#D"/><use xlink:href="#E"/><use xlink:href="#F"/><use xlink:href="#G"/><use xlink:href="#H"/><use xlink:href="#I"/><use xlink:href="#J"/></mask><g fill="#efd757"><use xlink:href="#C"/><use xlink:href="#D"/><use xlink:href="#E"/><use xlink:href="#F"/><use xlink:href="#G"/><use xlink:href="#H"/><use xlink:href="#I"/><use xlink:href="#J"/></g><g stroke="#000" stroke-width="2"><use xlink:href="#C" mask="url(#A)"/><use xlink:href="#D" mask="url(#A)"/><use xlink:href="#E" mask="url(#A)"/><use xlink:href="#F" mask="url(#A)"/><use xlink:href="#G" mask="url(#A)"/><use xlink:href="#H" mask="url(#A)"/><use xlink:href="#I" mask="url(#A)"/><use xlink:href="#J" mask="url(#A)"/></g><defs ><path id="C" d="M3.55 24.25c.233.133.433.133.6 0 .067-.1.017-.15-.15-.15h-.25c-.267 0-.367.033-.3.1l.1.05zm13.2-2.7a2.65 2.65 0 0 0-.55-.15c-.367 0-.533.033-.5.1l.15.05c.333.067.633.067.9 0zm-2.25-.2c-.267 0-.333.067-.2.2s.267.133.4 0c0-.1-.067-.167-.2-.2zm-2.1.3l1.1-.2c0-.033-.683-.067-2.05-.1-1.8 0-2.7.1-2.7.3 0 .167.317.25.95.25.8 0 1.7-.083 2.7-.25zm16.7-12.1l15.3-7.6c.067 0 .1.15.1.45s-.467.8-1.4 1.5-1.683 1.517-2.25 2.45a4.92 4.92 0 0 1-1.35 1.4c-.533.367-1.6.967-3.2 1.8-2.467 1.2-4.017 2.083-4.65 2.65-.433.433-2.783 1.8-7.05 4.1l-6.15 3.35c0 .067 1.217.833 3.65 2.3s3.65 2.317 3.65 2.55-.233.417-.7.55c-.267.067-.417.15-.45.25 0 .067.067.183.2.35.267.333.683.617 1.25.85.8.367 1.2 1.183 1.2 2.45 0 .067-.017.2-.05.4v.4c-.033.433-.033.717 0 .85.067.133.2.2.4.2.267 0 3.833 1.817 10.7 5.45 6.867 3.667 10.567 5.5 11.1 5.5h.05l.05-.05h.15c.5 0 1.15.183 1.95.55.7.3 1.167.55 1.4.75.267.233.467.583.6 1.05.2.7.3 1.233.3 1.6 0 .3-.067.45-.2.45h-.05c-.8-.4-4.85-2.583-12.15-6.55l-20.95-11.3-10.1-5.35c-.067.067-1.067 1.733-3 5-1.933 3.3-2.983 4.95-3.15 4.95-.067 0-.5-.267-1.3-.8-.767-.533-1.15-.833-1.15-.9 0-.033.033-.133.1-.3s.15-.417.25-.75l.35-.9c.433-1 .65-1.65.65-1.95 0-.167-.117-.567-.35-1.2l-.5-1.3 4-7.5c2.7-4.967 4.267-7.45 4.7-7.45.1 0 .15.117.15.35 0 .167.383.25 1.15.25a16.01 16.01 0 0 0 1.4-.05c.433-.033.933-.05 1.5-.05.8 0 1.2.15 1.2.45s-.467 1.383-1.4 3.25l-.55 1.15-.45.9-.3.75c-.033.133-.033.2 0 .2.367 0 5.483-2.483 15.35-7.45z"/><path id="D" d="M82.864 21.35c-.1-.167-.267-.25-.5-.25-.2 0-.55.05-1.05.15-.3.033-.483.1-.55.2-.033.1.017.267.15.5.233.4.683.6 1.35.6.2 0 .633-.067 1.3-.2.4-.133.617-.283.65-.45s-.15-.25-.55-.25-.667-.1-.8-.3zm-6.8-.1c0-.133-.083-.2-.25-.2-.333 0-.7.2-1.1.6-.3.3-.45.483-.45.55 0 .033.15.05.45.05s.6-.1.9-.3c.3-.233.45-.467.45-.7zm3.05-4c0-.2-.15-.333-.45-.4-.167-.033-.283-.017-.35.05-.033.067-.017.183.05.35.133.333.317.45.55.35.167-.033.233-.15.2-.35zm18.95-2.3l.1-.55c0-.2-.183-.3-.55-.3h-.55c-1.267.033-2.117.133-2.55.3-.4.133-.683.4-.85.8l-.35.75-4.8-.15-4.8-.25-.85 1.4c-.433.8-.65 1.3-.65 1.5 0 .167 1.65.283 4.95.35l7.3.25 2.45.1.5-1.65.65-2.55zm-22.05-2.35l2.55-3.8 5.35.25 5.85.15 10.7.3 5 .25c0 .1-.15 1.417-.45 3.95-.3 2.567-.634 3.983-1 4.25a14.33 14.33 0 0 0-.55.4c-.267.167-.434.283-.5.35-.334.233-1.267 2.783-2.8 7.65l-2.55 7.45c-.1.1-.733.25-1.9.45-1.133.233-1.917.35-2.35.35l-.25-.05c-.1-.1.3-1.833 1.2-5.2l1.3-5.3h-.15c-.7 0-2.383.167-5.05.5a101.36 101.36 0 0 1-10.05.9l-4.95.2-.8 1.2c-.333.533-.617.867-.85 1-.2.1-.583.15-1.15.15-3.5.067-5.417.267-5.75.6-.033.033-.05.083-.05.15 0 .167.25.317.75.45a6.99 6.99 0 0 0 1.7.2c.367 0 .633-.017.8-.05.533-.1 1.317-.15 2.35-.15h.75c.7 0 1.217-.117 1.55-.35.367-.267.65-.733.85-1.4.133-.433.383-.65.75-.65s.55.133.55.4c0 .3-.883 2.167-2.65 5.6l-3.35 6c-.167.233-1.133.667-2.9 1.3l-2.55.95-1.6-1.2-2.85-2.35-1.3-1.15 2.2-3.2c1.4-2.033 2.367-3.2 2.9-3.5.433-.2.65-.5.65-.9 0-.333 1.033-2.083 3.1-5.25s3.283-4.867 3.65-5.1c.167-.067 1.05-.167 2.65-.3l1.8-.2c.3-.1.45-.233.45-.4 0-.433-.283-.65-.85-.65-.133 0-.567.033-1.3.1-.433.067-.883.1-1.35.1-.3 0-.45-.05-.45-.15 0-.067.017-.117.05-.15.033-.067.183-.283.45-.65l1.1-1.6 1.3-1.9z"/><path id="E" d="M141.125 30.55c.133-.1.2-.2.2-.3 0-.267-.25-.4-.75-.4-.267 0-.433.083-.5.25-.067.1-.033.217.1.35.133.1.283.167.45.2.2 0 .367-.033.5-.1zm-2.6-1.35c.333 0 .533-.117.6-.35.033-.1 0-.167-.1-.2-.067-.033-.167-.05-.3-.05-.433 0-.65.1-.65.3s.15.3.45.3zm-2.15 0c.367 0 .583-.117.65-.35.033-.1-.017-.167-.15-.2-.067-.033-.167-.05-.3-.05-.4 0-.6.1-.6.3s.133.3.4.3zm8.8-.55l1.85-.25h-2.15a33.97 33.97 0 0 0-3.75.2l-1.7.2 1.15.25c.333.067.65.1.95.1.367 0 .717-.033 1.05-.1.767-.167 1.633-.3 2.6-.4zm-28.15-1.85a.13.13 0 0 0 .15-.15.13.13 0 0 0-.15-.15.13.13 0 0 0-.15.15.13.13 0 0 0 .15.15zm19.65-4.35c.133.133.267.133.4 0s.067-.2-.2-.2-.333.067-.2.2zm-3.95 0c.133.133.25.133.35 0 .133-.133.083-.2-.15-.2-.267 0-.333.067-.2.2zm3.55-.05c0-.133-.167-.217-.5-.25-.3-.067-.55-.033-.75.1-.133.167 0 .267.4.3.567 0 .85-.05.85-.15zm-4.85-.35c0-.067-.167-.1-.5-.1-.3 0-.383.1-.25.3.1.133.25.183.45.15.2-.067.3-.183.3-.35zm10.9-5.8l1.95-.55-8.85-.05h-8.9l-.75 1.55c-.467 1.033-.7 1.717-.7 2.05 0 .4.35.75 1.05 1.05.4.167.75.25 1.05.25.6 0 2.5-.45 5.7-1.35l6.55-1.95c.3-.133 1.267-.467 2.9-1zm-20.3-3.65c.333-.733.6-1.217.8-1.45.233-.267.483-.4.75-.4.2 0 1.9.1 5.1.3l7.6.3c2 .033 5.583.2 10.75.5 5.2.267 7.85.45 7.95.55.067.033.5.7 1.3 2 .6.967.9 1.617.9 1.95 0 .133-.033.233-.1.3-.3.3-2.95 1.25-7.95 2.85-4.767 1.533-7.483 2.5-8.15 2.9-.367.2-1.133.5-2.3.9-1.267.367-1.9.617-1.9.75 0 .167.75.567 2.25 1.2 1.533.633 2.483.95 2.85.95.133 0 2.1.717 5.9 2.15 3.833 1.433 5.75 2.217 5.75 2.35 0 .233-.9 1.183-2.7 2.85-1.767 1.7-2.783 2.55-3.05 2.55-.067 0-.2-.033-.4-.1a6.87 6.87 0 0 1-.8-.2c-.3-.1-.55-.167-.75-.2-3.7-.933-5.55-1.5-5.55-1.7 0-.1.85-.25 2.55-.45 1.667-.2 2.75-.367 3.25-.5.533-.133.8-.333.8-.6 0-.2-.233-.3-.7-.3a12.3 12.3 0 0 0-1.2.05l-1.9.15c-.867.067-1.467.1-1.8.1-1.467.067-2.2.15-2.2.25a.45.45 0 0 0 .05.2c.133.3.067.467-.2.5-.2-.033-.367-.117-.5-.25-.233-.3-.55-.4-.95-.3h-.1c-.567 0-2.25-.55-5.05-1.65-2.8-1.133-5.083-2.167-6.85-3.1l-2.75-1.45-3.7 7.4c-2.5 4.9-3.85 7.35-4.05 7.35s-.733-.5-1.6-1.5c-.833-.967-1.45-1.783-1.85-2.45-.167-.267-.25-.483-.25-.65 0-.4.667-2.067 2-5 1.5-3.267 2.417-4.9 2.75-4.9.233 0 .383-.033.45-.1s.067-.133 0-.2c-.033-.067-.083-.15-.15-.25s-.1-.167-.1-.2c0-.5.783-2.433 2.35-5.8l3.45-7.65z"/><path id="F" d="M186.135 21.35c-.1-.167-.267-.25-.5-.25-.2 0-.55.05-1.05.15-.3.033-.483.1-.55.2-.033.1.017.267.15.5.233.4.684.6 1.35.6.2 0 .633-.067 1.3-.2.4-.133.617-.283.65-.45s-.15-.25-.55-.25-.667-.1-.8-.3zm-6.8-.1c0-.133-.083-.2-.25-.2-.333 0-.7.2-1.1.6-.3.3-.45.483-.45.55 0 .033.15.05.45.05s.6-.1.9-.3c.3-.233.45-.467.45-.7zm3.05-4c0-.2-.15-.333-.45-.4-.167-.033-.283-.017-.35.05-.033.067-.017.183.05.35.133.333.317.45.55.35.167-.033.233-.15.2-.35zm18.95-2.3l.1-.55c0-.2-.183-.3-.55-.3h-.55c-1.267.033-2.116.133-2.55.3a1.35 1.35 0 0 0-.85.8l-.35.75-4.8-.15-4.8-.25-.85 1.4c-.433.8-.65 1.3-.65 1.5 0 .167 1.65.283 4.95.35l7.3.25 2.45.1.5-1.65.65-2.55zm-22.05-2.35l2.55-3.8 5.35.25 5.85.15 10.7.3 5 .25c0 .1-.15 1.417-.45 3.95-.3 2.567-.633 3.983-1 4.25l-.55.4c-.266.167-.433.283-.5.35-.333.233-1.267 2.783-2.8 7.65l-2.55 7.45c-.1.1-.733.25-1.9.45-1.133.233-1.917.35-2.35.35l-.25-.05c-.1-.1.3-1.833 1.2-5.2l1.3-5.3h-.15c-.7 0-2.383.167-5.05.5-3.333.467-6.683.767-10.05.9l-4.95.2-.8 1.2c-.333.533-.617.867-.85 1-.2.1-.583.15-1.15.15-3.5.067-5.417.267-5.75.6-.033.033-.05.083-.05.15 0 .167.25.317.75.45.533.133 1.1.2 1.7.2.367 0 .633-.017.8-.05.533-.1 1.317-.15 2.35-.15h.75c.7 0 1.217-.117 1.55-.35.367-.267.65-.733.85-1.4.133-.433.383-.65.75-.65s.55.133.55.4c0 .3-.883 2.167-2.65 5.6-1.766 3.4-2.883 5.4-3.35 6-.167.233-1.133.667-2.9 1.3l-2.55.95-1.6-1.2c-.8-.6-1.75-1.383-2.85-2.35l-1.3-1.15 2.2-3.2c1.4-2.033 2.367-3.2 2.9-3.5.433-.2.65-.5.65-.9 0-.333 1.033-2.083 3.1-5.25s3.283-4.867 3.65-5.1c.167-.067 1.05-.167 2.65-.3.933-.067 1.533-.133 1.8-.2.3-.1.45-.233.45-.4 0-.433-.283-.65-.85-.65-.133 0-.567.033-1.3.1a8.86 8.86 0 0 1-1.35.1c-.3 0-.45-.05-.45-.15 0-.067.017-.117.05-.15.033-.067.183-.283.45-.65l1.1-1.6c.5-.7.933-1.333 1.3-1.9z"/><path id="G" d="M235.446 9.5l3.2-1.2c.167 0 .434.517.8 1.55s.55 1.817.55 2.35v.4c0 .833.467 2.483 1.4 4.95.934 2.433 1.584 3.683 1.95 3.75.4.067.734.2 1 .4.234.233.35.617.35 1.15 0 .5-.1.9-.3 1.2-.1.133-.233.2-.4.2-.3 0-.616-.167-.95-.5-.333-.367-.55-.75-.65-1.15-.166-.667-.583-1.35-1.25-2.05-.666-.733-1.333-1.233-2-1.5-.666-.233-.983-.433-.95-.6l.15-.15c.267-.167.234-.333-.1-.5-.3-.133-.75-.733-1.35-1.8-.566-1.067-.85-1.783-.85-2.15a.39.39 0 0 1 .05-.15l.05-.15c0-.067-.05-.1-.15-.1-.366 0-1.516.5-3.45 1.5l-3.3 1.55c-.2 0-.5.2-.9.6s-1.016.6-1.85.6c-.8 0-1.2.183-1.2.55 0 .3-.566.767-1.7 1.4-.966.467-1.45.817-1.45 1.05 0 .033 2.517 1.1 7.55 3.2l7.25 2.9 2.85-.15 1.75-.1c.667 0 1 .067 1 .2 0 .3.117 1.65.35 4.05l.2 3c0 .7-.1 1.3-.3 1.8l-.4 1.05-21.75 2.8-1.4-.8c-.566-.333-.983-.683-1.25-1.05-.266-.333-.566-.9-.9-1.7-.466-1.2-1.05-2.15-1.75-2.85-.566-.567-.85-1.033-.85-1.4 0-.2.017-.35.05-.45.067-.3.15-.5.25-.6s.367-.15.8-.15c.534 0 1.717.1 3.55.3 2.2.2 3.3.45 3.3.75 0 .133-.3.367-.9.7-.533.267-.733.567-.6.9.134.367.25.8.35 1.3.1.6-.1.983-.6 1.15l-.7.25.95.6c.467.3.917.45 1.35.45s1.65-.15 3.65-.45l4.5-.8c.367-.233 1.15-.4 2.35-.5.9-.1 1.484-.233 1.75-.4.267-.133.617-.533 1.05-1.2.567-.933.85-1.55.85-1.85 0-.333-.283-.783-.85-1.35-.6-.567-1.283-.85-2.05-.85h-.25c-3.566 0-8.216-1.217-13.95-3.65-1.266-.533-1.933-.9-2-1.1a.45.45 0 0 1-.05-.2c0-.167.017-.317.05-.45.1-.6.034-.9-.2-.9-.366 0-.466-.183-.3-.55.134-.233.317-.4.55-.5.367-.1.55-.25.55-.45 0-.233-.333-.6-1-1.1-.633-.533-.95-.85-.95-.95 0-.267.867-.95 2.6-2.05 1.767-1.133 3.65-2.2 5.65-3.2 2.834-1.433 6.567-3.05 11.2-4.85z"/><path id="H" d="M255.534 31.15c-.167-.067-.35-.117-.55-.15-.367 0-.533.033-.5.1l.15.05c.333.067.633.067.9 0zm11.3-.3c-.033-.067-.167-.117-.4-.15-.333.033-.45.083-.35.15a1.43 1.43 0 0 0 .75 0zm7.2-2.95c.6 0 .9-.1.9-.3s-.3-.3-.9-.3-.9.1-.9.3.3.3.9.3zm-2.9 0c.833 0 1.25-.117 1.25-.35 0-.167-.35-.25-1.05-.25-.833 0-1.25.1-1.25.3s.35.3 1.05.3zm-12.8-.3a.13.13 0 0 0 .15-.15.13.13 0 0 0-.15-.15.13.13 0 0 0-.15.15.13.13 0 0 0 .15.15zm-1.65-.05c0-.167-.283-.25-.85-.25-.367 0-.55.033-.55.1 0 .233.333.35 1 .35.267 0 .4-.067.4-.2zm23.55-16.5l4.7-7.2c.067 0 .267.083.6.25.233.167.167.5-.2 1-1 1.3-1.5 2.65-1.5 4.05v.4c0 .533-.067 1-.2 1.4-.033.067-.05.183-.05.35 0 .533.15 1.2.45 2l.6 1.75-3.9 7-3.95 7.35c-3.667 7.7-5.75 11.55-6.25 11.55-.133 0-.95-.367-2.45-1.1-1.467-.7-2.4-1.167-2.8-1.4-.1-.033-.15-.15-.15-.35 0-.267.2-.933.6-2a14.13 14.13 0 0 0 .35-1.1c.133-.367.217-.65.25-.85s.033-.317 0-.35c-.167 0-1.85 1.083-5.05 3.25l-4.95 3.45c-.3.2-.533.3-.7.3-.3 0-1.133-.45-2.5-1.35-1.767-1.133-2.65-1.733-2.65-1.8 0-.533.55-2.017 1.65-4.45l3.35-7.7c.167-.433.417-.767.75-1 .333-.267.967-.617 1.9-1.05 1.467-.7 2.517-1.05 3.15-1.05.433 0 .683.083.75.25.1.133.15.567.15 1.3 0 1-.183 1.833-.55 2.5a22.24 22.24 0 0 0-.75 1.8 52.93 52.93 0 0 1-.95 2.25 21.97 21.97 0 0 0-.5 1.2l-.4.95c-.067.233-.083.35-.05.35l8.9-5.15c.2 0 .883-.433 2.05-1.3 1.167-.833 2.05-1.817 2.65-2.95.767-1.367 1.45-2.517 2.05-3.45.3-.467 2.167-3.5 5.6-9.1z"/><path id="I" d="M300.148 31.25h1.25l1.1-.05h.55c.2 0 .35.017.45.05h.2c.334.067.917.1 1.75.1h1.3l-6.15 9.85-3.3.65-5.15.9c-.433 0-.65-.25-.65-.75 0-.6.517-1.817 1.55-3.65l1.65-2.7s.634-.4 1.2-.4c2 0 3-.2 3-.6 0-.2-.616-.3-1.85-.3h-1.8l1.7-3 3.2-.1zm21.75-3.35c-.066-.2-.25-.333-.55-.4s-.533-.033-.7.1c-.1.133-.15.25-.15.35.034.1.134.183.3.25a1.47 1.47 0 0 0 .55.1.71.71 0 0 0 .4-.1c.134-.067.184-.167.15-.3zm-.8-6.55l4.65-8.2 3.75.2c2.667.133 4 .267 4 .4 0 .3-2.583 5.1-7.75 14.4l-1.85 3.35c-3.233 5.833-5.233 9.2-6 10.1-.8.767-1.666 1.167-2.6 1.2h-1.4l-2.2.05-1-1.55c-.4-.667-.7-1.333-.9-2s-.45-1.9-.75-3.7c-.066-.533-.166-1.167-.3-1.9-.1-.7-.183-1.217-.25-1.55a10.83 10.83 0 0 1-.05-.7c0-.067 1.484-.167 4.45-.3 2.134-.1 3.434-.183 3.9-.25.467-.1.9-.333 1.3-.7.534-.467.8-.933.8-1.4 0-.233-.033-.35-.1-.35-.066-.033-.366.2-.9.7-.633.633-1.05.95-1.25.95-.1 0-.15-.1-.15-.3 0-.1 1.534-2.917 4.6-8.45zm-13.65-9.05c.634-1.033 1.05-1.55 1.25-1.55.1 0 .15.1.15.3 0 .033-.033.25-.1.65-.133.567-.2 1.017-.2 1.35 0 .267.067.433.2.5.167.067.517.133 1.05.2l1.3.15 2.3 8c1.4 4.833 2.1 7.517 2.1 8.05 0 .133-2.35.2-7.05.2-4.6 0-7.033.1-7.3.3-.2.2-.383.183-.55-.05-.133-.2-.65-.3-1.55-.3-.8 0-1.2-.067-1.2-.2 0-.067.034-.167.1-.3.467-1.1 3.634-6.867 9.5-17.3z"/><path id="J" d="M365.452 33.75a.13.13 0 0 0 .15-.15.13.13 0 0 0-.15-.15.13.13 0 0 0-.15.15.13.13 0 0 0 .15.15zm-22-4c.234.133.417.117.55-.05.067-.1.017-.15-.15-.15h-.25c-.166 0-.266.017-.3.05l.15.15zm-.55-2.35c-.3-.2-.633-.3-1-.3s-.55.1-.55.3.334.3 1 .3c.467 0 .717-.033.75-.1 0-.067-.066-.133-.2-.2zm3.75-1.5c.367 0 .45-.2.25-.6-.1-.233-.233-.35-.4-.35-.2 0-.3.15-.3.45 0 .333.15.5.45.5zm18.95-1.3c-1.033-3.267-2.566-5.3-4.6-6.1h-.1c-.533 0-2.133.667-4.8 2s-4.55 2.417-5.65 3.25c-1.1.8-1.783 1.2-2.05 1.2s-.333.1-.2.3v.05l.05.1c0 .4-.35 1.133-1.05 2.2-.666 1.067-1.15 1.617-1.45 1.65h-.05l-.3.1a2.46 2.46 0 0 1 .3.05c.367.1.484.367.35.8l-.3.85-.3 1.05-.4 1.25 4.85 3.85 1.75-.2c3.267-.4 6.234-1.1 8.9-2.1 3.767-1.433 5.65-3.717 5.65-6.85 0-1.033-.2-2.183-.6-3.45zm-2.1-11.75l8.15-.25c.834 0 1.25.067 1.25.2 0 .533-.683.9-2.05 1.1-.8.1-1.433.433-1.9 1-.333.433-.5.7-.5.8s.15.3.45.6c1.2 1.333 2.384 4.3 3.55 8.9l1.05 4.65c0 .333-.483 1.15-1.45 2.45a35.13 35.13 0 0 1-2.9 3.55c-2.233 2.367-4.616 4.067-7.15 5.1s-5.816 1.633-9.85 1.8l-4.25.15-3.05-2.65-4.9-4.5c-.466-.567-.7-1.267-.7-2.1 0-2.8.7-5.65 2.1-8.55 2.467-5.133 7.217-8.867 14.25-11.2 1.1-.367 2.084-.6 2.95-.7.9-.133 2.55-.25 4.95-.35z"/></defs></svg>