<?xml version="1.0" standalone="no"?>
<!DOCTYPE svg PUBLIC "-//W3C//DTD SVG 20010904//EN"
 "http://www.w3.org/TR/2001/REC-SVG-20010904/DTD/svg10.dtd">
<svg version="1.0" xmlns="http://www.w3.org/2000/svg"
 width="16.000000pt" height="16.000000pt" viewBox="0 0 16.000000 16.000000"
 preserveAspectRatio="xMidYMid meet">
<metadata>
Created by potrace 1.11, written by Peter Selinger 2001-2013
</metadata>
<g transform="translate(0.000000,16.000000) scale(0.015534,-0.015534)"
fill="#000000" stroke="none">
<path d="M346 974 c-37 -37 -13 -94 40 -94 43 0 65 59 34 90 -24 24 -53 26
-74 4z"/>
<path d="M772 874 c-43 -30 -16 -94 41 -94 47 0 64 67 25 94 -12 9 -27 16 -33
16 -6 0 -21 -7 -33 -16z"/>
<path d="M392 790 c-45 -42 -13 -120 49 -120 55 0 85 63 52 108 -26 35 -70 40
-101 12z"/>
<path d="M638 753 c-20 -5 -48 -61 -41 -82 16 -44 54 -63 94 -49 26 9 47 41
43 66 -1 6 -2 19 -3 27 -2 24 -56 46 -93 38z"/>
<path d="M42 658 c-21 -21 -14 -66 12 -83 18 -12 30 -13 50 -6 14 6 26 14 27
18 0 5 2 16 4 25 8 43 -61 78 -93 46z"/>
<path d="M230 618 c-26 -29 -26 -72 2 -98 29 -27 64 -25 95 6 20 20 24 32 19
56 -11 57 -77 78 -116 36z"/>
<path d="M475 591 c-32 -14 -47 -37 -48 -77 -1 -28 5 -42 27 -60 31 -28 56
-30 95 -9 32 16 41 33 41 75 0 54 -63 93 -115 71z"/>
<path d="M694 522 c-15 -10 -34 -47 -34 -67 0 -9 12 -27 26 -42 46 -46 113
-14 114 54 0 22 -7 37 -22 47 -24 17 -65 21 -84 8z"/>
<path d="M889 449 c-31 -31 -8 -89 35 -89 53 0 77 57 40 94 -21 22 -50 20 -75
-5z"/>
<path d="M319 413 c-20 -5 -47 -53 -43 -76 5 -32 35 -57 69 -57 53 0 85 52 60
99 -19 37 -42 46 -86 34z"/>
<path d="M525 346 c-28 -20 -26 -83 4 -107 31 -25 63 -24 89 4 43 46 17 117
-42 117 -18 0 -41 -6 -51 -14z"/>
<path d="M183 249 c-46 -17 -38 -92 12 -101 35 -7 65 17 65 51 0 42 -37 65
-77 50z"/>
<path d="M585 126 c-13 -19 -14 -28 -4 -50 12 -26 16 -28 44 -28 37 0 44 4 53
31 22 61 -58 101 -93 47z"/>
</g>
</svg>
